<mxfile host="app.diagrams.net" modified="2023-11-27T22:31:31.033Z" agent="Mozilla/5.0 (Windows NT 10.0; Win64; x64) AppleWebKit/537.36 (KHTML, like Gecko) Chrome/119.0.0.0 Safari/537.36" etag="sIqDDMtxSG49j6MWIr_v" version="22.1.4" type="github">
  <diagram name="PaginÄƒ-1" id="lK-3OKJSgrDxUNlFdY-_">
    <mxGraphModel dx="954" dy="592" grid="1" gridSize="10" guides="1" tooltips="1" connect="1" arrows="1" fold="1" page="1" pageScale="1" pageWidth="827" pageHeight="1169" math="0" shadow="0">
      <root>
        <mxCell id="0" />
        <mxCell id="1" parent="0" />
        <mxCell id="WSvQWB29_eNkPEW9ixAx-1" value="" style="whiteSpace=wrap;html=1;aspect=fixed;" vertex="1" parent="1">
          <mxGeometry x="60" y="180" width="80" height="80" as="geometry" />
        </mxCell>
        <mxCell id="WSvQWB29_eNkPEW9ixAx-3" value="" style="ellipse;whiteSpace=wrap;html=1;aspect=fixed;" vertex="1" parent="1">
          <mxGeometry x="390" y="50" width="80" height="80" as="geometry" />
        </mxCell>
        <mxCell id="WSvQWB29_eNkPEW9ixAx-4" value="" style="triangle;whiteSpace=wrap;html=1;" vertex="1" parent="1">
          <mxGeometry x="380" y="280" width="60" height="80" as="geometry" />
        </mxCell>
        <mxCell id="WSvQWB29_eNkPEW9ixAx-5" value="" style="shape=cylinder3;whiteSpace=wrap;html=1;boundedLbl=1;backgroundOutline=1;size=15;" vertex="1" parent="1">
          <mxGeometry x="250" y="180" width="60" height="80" as="geometry" />
        </mxCell>
        <mxCell id="WSvQWB29_eNkPEW9ixAx-6" value="" style="endArrow=classic;html=1;rounded=0;" edge="1" parent="1">
          <mxGeometry width="50" height="50" relative="1" as="geometry">
            <mxPoint x="160" y="220" as="sourcePoint" />
            <mxPoint x="240" y="220" as="targetPoint" />
            <Array as="points">
              <mxPoint x="200" y="220" />
            </Array>
          </mxGeometry>
        </mxCell>
        <mxCell id="WSvQWB29_eNkPEW9ixAx-7" value="" style="endArrow=classic;html=1;rounded=0;" edge="1" parent="1">
          <mxGeometry width="50" height="50" relative="1" as="geometry">
            <mxPoint x="320" y="170" as="sourcePoint" />
            <mxPoint x="380" y="110" as="targetPoint" />
          </mxGeometry>
        </mxCell>
        <mxCell id="WSvQWB29_eNkPEW9ixAx-8" value="" style="endArrow=classic;html=1;rounded=0;" edge="1" parent="1">
          <mxGeometry width="50" height="50" relative="1" as="geometry">
            <mxPoint x="320" y="250" as="sourcePoint" />
            <mxPoint x="370" y="310" as="targetPoint" />
            <Array as="points" />
          </mxGeometry>
        </mxCell>
        <UserObject label="Text" tooltip="Baze de date" id="WSvQWB29_eNkPEW9ixAx-9">
          <mxCell style="text;html=1;strokeColor=none;fillColor=none;align=center;verticalAlign=middle;whiteSpace=wrap;rounded=0;" vertex="1" parent="1">
            <mxGeometry x="250" y="205" width="60" height="30" as="geometry" />
          </mxCell>
        </UserObject>
        <object label="Text" tooltip="Tema proiect" id="WSvQWB29_eNkPEW9ixAx-10">
          <mxCell style="text;html=1;strokeColor=none;fillColor=none;align=center;verticalAlign=middle;whiteSpace=wrap;rounded=0;" vertex="1" parent="1">
            <mxGeometry x="70" y="205" width="60" height="30" as="geometry" />
          </mxCell>
        </object>
        <object label="Text" tooltip="Autentificare" id="WSvQWB29_eNkPEW9ixAx-11">
          <mxCell style="text;html=1;strokeColor=none;fillColor=none;align=center;verticalAlign=middle;whiteSpace=wrap;rounded=0;fontSize=12;fontFamily=Helvetica;fontColor=default;" vertex="1" parent="1">
            <mxGeometry x="370" y="305" width="60" height="30" as="geometry" />
          </mxCell>
        </object>
        <UserObject label="Text" tooltip="Adaugarea " id="WSvQWB29_eNkPEW9ixAx-12">
          <mxCell style="text;html=1;strokeColor=none;fillColor=none;align=center;verticalAlign=middle;whiteSpace=wrap;rounded=0;fontSize=12;fontFamily=Helvetica;fontColor=default;" vertex="1" parent="1">
            <mxGeometry x="400" y="75" width="60" height="30" as="geometry" />
          </mxCell>
        </UserObject>
        <mxCell id="WSvQWB29_eNkPEW9ixAx-13" value="" style="endArrow=classic;html=1;rounded=0;fontFamily=Helvetica;fontSize=12;fontColor=default;" edge="1" parent="1" target="WSvQWB29_eNkPEW9ixAx-14">
          <mxGeometry width="50" height="50" relative="1" as="geometry">
            <mxPoint x="330" y="219.5" as="sourcePoint" />
            <mxPoint x="410" y="219.5" as="targetPoint" />
            <Array as="points">
              <mxPoint x="360" y="219.5" />
            </Array>
          </mxGeometry>
        </mxCell>
        <mxCell id="WSvQWB29_eNkPEW9ixAx-14" value="" style="ellipse;whiteSpace=wrap;html=1;aspect=fixed;rounded=0;align=center;verticalAlign=middle;fontFamily=Helvetica;fontSize=12;fontColor=default;fillColor=none;gradientColor=none;" vertex="1" parent="1">
          <mxGeometry x="390" y="180" width="80" height="80" as="geometry" />
        </mxCell>
        <UserObject label="Text" tooltip="Sprint Traking" id="WSvQWB29_eNkPEW9ixAx-15">
          <mxCell style="text;html=1;strokeColor=none;fillColor=none;align=center;verticalAlign=middle;whiteSpace=wrap;rounded=0;fontSize=12;fontFamily=Helvetica;fontColor=default;" vertex="1" parent="1">
            <mxGeometry x="400" y="205" width="60" height="30" as="geometry" />
          </mxCell>
        </UserObject>
        <mxCell id="WSvQWB29_eNkPEW9ixAx-16" value="" style="endArrow=classic;html=1;rounded=0;fontFamily=Helvetica;fontSize=12;fontColor=default;" edge="1" parent="1" target="WSvQWB29_eNkPEW9ixAx-17">
          <mxGeometry width="50" height="50" relative="1" as="geometry">
            <mxPoint x="280" y="265" as="sourcePoint" />
            <mxPoint x="300" y="340" as="targetPoint" />
          </mxGeometry>
        </mxCell>
        <mxCell id="WSvQWB29_eNkPEW9ixAx-17" value="" style="ellipse;whiteSpace=wrap;html=1;aspect=fixed;rounded=0;align=center;verticalAlign=middle;fontFamily=Helvetica;fontSize=12;fontColor=default;fillColor=none;gradientColor=none;" vertex="1" parent="1">
          <mxGeometry x="260" y="300" width="80" height="80" as="geometry" />
        </mxCell>
        <UserObject label="Text" tooltip="Actualizarea starii spliturilor" id="WSvQWB29_eNkPEW9ixAx-19">
          <mxCell style="text;html=1;strokeColor=none;fillColor=none;align=center;verticalAlign=middle;whiteSpace=wrap;rounded=0;fontSize=12;fontFamily=Helvetica;fontColor=default;" vertex="1" parent="1">
            <mxGeometry x="270" y="320" width="60" height="30" as="geometry" />
          </mxCell>
        </UserObject>
      </root>
    </mxGraphModel>
  </diagram>
</mxfile>
